<?xml version="1.0" encoding="UTF-8"?>
<svg width="48" height="48" version="1.1" xmlns="http://www.w3.org/2000/svg" xmlns:cc="http://creativecommons.org/ns#" xmlns:dc="http://purl.org/dc/elements/1.1/" xmlns:rdf="http://www.w3.org/1999/02/22-rdf-syntax-ns#" xmlns:xlink="http://www.w3.org/1999/xlink">
 <defs>
  <linearGradient id="linearGradient3019" x1="71.204" x2="71.204" y1="6.2376" y2="44.341" gradientTransform="matrix(1.0541 0 0 1.0541 -51.611 -2.7279)" gradientUnits="userSpaceOnUse">
   <stop stop-color="#fff" offset="0"/>
   <stop stop-color="#fff" stop-opacity=".23529" offset=".50776"/>
   <stop stop-color="#fff" stop-opacity=".15686" offset=".83457"/>
   <stop stop-color="#fff" stop-opacity=".39216" offset="1"/>
  </linearGradient>
  <radialGradient id="radialGradient3300-8" cx="99.189" cy="185.3" r="62.769" gradientTransform="matrix(.38235 7.5556e-8 -1.8372e-8 .11152 -5.9254 36.336)" gradientUnits="userSpaceOnUse" xlink:href="#linearGradient3820-7-2"/>
  <linearGradient id="linearGradient3820-7-2">
   <stop offset="0"/>
   <stop stop-opacity="0" offset="1"/>
  </linearGradient>
  <radialGradient id="radialGradient4192-6" cx="99.189" cy="185.3" r="62.769" gradientTransform="matrix(.2549 5.3967e-8 -1.2248e-8 .079655 6.7164 44.241)" gradientUnits="userSpaceOnUse" xlink:href="#linearGradient3820-7-2"/>
  <linearGradient id="linearGradient19" x1="36.536" x2="36.536" y1="4.4787" y2="47.784" gradientTransform="matrix(.99965 0 0 .92693 -12.875 -.58908)" gradientUnits="userSpaceOnUse">
   <stop stop-color="#43d6b5" offset="0"/>
   <stop stop-color="#28bca3" offset="1"/>
  </linearGradient>
 </defs>
 <metadata>
  <rdf:RDF>
   <cc:Work rdf:about="">
    <dc:format>image/svg+xml</dc:format>
    <dc:type rdf:resource="http://purl.org/dc/dcmitype/StillImage"/>
   </cc:Work>
  </rdf:RDF>
 </metadata>
 <g transform="matrix(.70833 0 0 .71428 1.3333 .7846)" stroke-width="1.4059">
  <path d="m56 57.002a24 6.9986 0 1 1-48 0 24 6.9986 0 1 1 48 0z" fill="url(#radialGradient3300-8)" opacity=".2"/>
  <path d="m48 59.002a16 4.9989 0 1 1-32 0 16 4.9989 0 1 1 32 0z" fill="url(#radialGradient4192-6)" opacity=".4"/>
 </g>
 <path d="m24 3.5c-11.311 0-20.5 9.1888-20.5 20.5s9.1888 20.5 20.5 20.5c11.311 0 20.5-9.1888 20.5-20.5 0-11.311-9.1888-20.5-20.5-20.5z" color="#000000" fill="url(#linearGradient19)" opacity=".99" stop-color="#000000" stroke="#007367" stroke-linejoin="round" stroke-miterlimit="0" stroke-opacity=".5" stroke-width="1.019" style="font-variation-settings:normal"/>
 <path d="m43.5 23.999c0 10.77-8.7311 19.501-19.5 19.501-10.77 0-19.5-8.7309-19.5-19.501 0-10.769 8.7306-19.499 19.5-19.499 10.769 0 19.5 8.7299 19.5 19.499z" color="#000000" fill="none" opacity=".5" stroke="url(#linearGradient3019)" stroke-linecap="round" stroke-linejoin="round"/>
 <g shape-rendering="auto">
  <path d="m24 14c-3.3078 0-6 2.6922-6 6s2.6922 6 6 6 6-2.6922 6-6-2.6922-6-6-6zm-2.248 13c-0.02089-5e-6 -0.04177 0.0013-0.0625 0.0039-3.3909 0.43253-5.6283 1.8598-6.6504 4.3027-0.02573 0.06123-0.03901 0.12696-0.03906 0.19336v1.5c0 1.0994 0.90065 2 2 2h14c1.0994 0 2-0.90065 2-2v-1.5c-2.21e-4 -0.04355-0.0061-0.08689-0.01758-0.12891-0.39246-1.4709-1.5729-2.5439-2.875-3.2598-1.3021-0.71588-2.7411-1.0932-3.8516-1.1113-0.0026-2e-5 -0.0052-2e-5 -0.0078 0z" color="#000000" color-rendering="auto" dominant-baseline="auto" fill="#007367" image-rendering="auto" opacity=".15" solid-color="#000000" stop-color="#000000" stroke="#007367" stroke-linecap="round" stroke-linejoin="round" stroke-width="2" style="font-feature-settings:normal;font-variant-alternates:normal;font-variant-caps:normal;font-variant-east-asian:normal;font-variant-ligatures:normal;font-variant-numeric:normal;font-variant-position:normal;font-variation-settings:normal;inline-size:0;isolation:auto;mix-blend-mode:normal;shape-margin:0;shape-padding:0;text-decoration-color:#000000;text-decoration-line:none;text-decoration-style:solid;text-indent:0;text-orientation:mixed;text-transform:none;white-space:normal"/>
  <path d="m24 14c-3.3078 0-6 2.6922-6 6s2.6922 6 6 6 6-2.6922 6-6-2.6922-6-6-6zm-2.248 13c-0.02089-5e-6 -0.04177 0.0013-0.0625 0.0039-3.3909 0.43253-5.6283 1.8598-6.6504 4.3027-0.02573 0.06123-0.03901 0.12696-0.03906 0.19336v1.5c0 1.0994 0.90065 2 2 2h14c1.0994 0 2-0.90065 2-2v-1.5c-2.21e-4 -0.04355-0.0061-0.08689-0.01758-0.12891-0.39246-1.4709-1.5729-2.5439-2.875-3.2598-1.3021-0.71588-2.7411-1.0932-3.8516-1.1113-0.0026-2e-5 -0.0052-2e-5 -0.0078 0z" color="#000000" color-rendering="auto" dominant-baseline="auto" fill="#007367" image-rendering="auto" opacity=".3" solid-color="#000000" stop-color="#000000" style="font-feature-settings:normal;font-variant-alternates:normal;font-variant-caps:normal;font-variant-east-asian:normal;font-variant-ligatures:normal;font-variant-numeric:normal;font-variant-position:normal;font-variation-settings:normal;inline-size:0;isolation:auto;mix-blend-mode:normal;shape-margin:0;shape-padding:0;text-decoration-color:#000000;text-decoration-line:none;text-decoration-style:solid;text-indent:0;text-orientation:mixed;text-transform:none;white-space:normal"/>
  <path d="m24 13c-3.3078 0-6 2.6922-6 6s2.6922 6 6 6 6-2.6922 6-6-2.6922-6-6-6zm-2.248 13c-0.02089-5e-6 -0.04177 0.0013-0.0625 0.0039-3.3909 0.43253-5.6283 1.8598-6.6504 4.3027-0.02573 0.06123-0.03901 0.12696-0.03906 0.19336v1.5c0 1.0994 0.90065 2 2 2h14c1.0994 0 2-0.90065 2-2v-1.5c-2.21e-4 -0.04355-0.0061-0.08689-0.01758-0.12891-0.39246-1.4709-1.5729-2.5439-2.875-3.2598-1.3021-0.71588-2.7411-1.0932-3.8516-1.1113-0.0026-2e-5 -0.0052-2e-5 -0.0078 0z" color="#000000" color-rendering="auto" dominant-baseline="auto" fill="#fafafa" image-rendering="auto" solid-color="#000000" stop-color="#000000" style="font-feature-settings:normal;font-variant-alternates:normal;font-variant-caps:normal;font-variant-east-asian:normal;font-variant-ligatures:normal;font-variant-numeric:normal;font-variant-position:normal;font-variation-settings:normal;inline-size:0;isolation:auto;mix-blend-mode:normal;shape-margin:0;shape-padding:0;text-decoration-color:#000000;text-decoration-line:none;text-decoration-style:solid;text-indent:0;text-orientation:mixed;text-transform:none;white-space:normal"/>
  <path d="m18.037 19.666c0.33248 2.9957 2.8802 5.334 5.9629 5.334s5.6304-2.3383 5.9629-5.334a7 7 0 0 1-5.9629 3.334 7 7 0 0 1-5.9629-3.334zm14.963 11.559c-0.4447 0.41348-1.0091 0.6931-1.6426 0.75391-4.0177 0.05046-8.0378 0.0069-12.057 0.02148-1.4398-0.07131-3.1458 0.32955-4.3008-0.76367v0.76367c0 1.0994 0.90065 2 2 2h14c1.0994 0 2-0.90065 2-2z" color="#000000" color-rendering="auto" dominant-baseline="auto" fill="#007367" image-rendering="auto" opacity=".07" solid-color="#000000" stop-color="#000000" style="font-feature-settings:normal;font-variant-alternates:normal;font-variant-caps:normal;font-variant-east-asian:normal;font-variant-ligatures:normal;font-variant-numeric:normal;font-variant-position:normal;font-variation-settings:normal;inline-size:0;isolation:auto;mix-blend-mode:normal;shape-margin:0;shape-padding:0;text-decoration-color:#000000;text-decoration-line:none;text-decoration-style:solid;text-indent:0;text-orientation:mixed;text-transform:none;white-space:normal"/>
  <path d="m18.021 18.5c-0.01367 0.16489-0.02148 0.33165-0.02148 0.5 0 3.3078 2.6922 6 6 6s6-2.6922 6-6c0-0.16835-0.0078-0.33511-0.02148-0.5-0.255 3.0749-2.8391 5.5-5.9785 5.5s-5.7235-2.4251-5.9785-5.5zm-3.0215 12.5v1c0 1.0994 0.90065 2 2 2h14c1.0994 0 2-0.90065 2-2v-1c0 1.0994-0.90065 2-2 2h-14c-1.0994 0-2-0.90065-2-2z" color="#000000" color-rendering="auto" dominant-baseline="auto" fill="#007367" image-rendering="auto" opacity=".15" solid-color="#000000" stop-color="#000000" style="font-feature-settings:normal;font-variant-alternates:normal;font-variant-caps:normal;font-variant-east-asian:normal;font-variant-ligatures:normal;font-variant-numeric:normal;font-variant-position:normal;font-variation-settings:normal;inline-size:0;isolation:auto;mix-blend-mode:normal;shape-margin:0;shape-padding:0;text-decoration-color:#000000;text-decoration-line:none;text-decoration-style:solid;text-indent:0;text-orientation:mixed;text-transform:none;white-space:normal"/>
 </g>
</svg>
