<?xml version="1.0" encoding="UTF-8"?>
<svg width="32" height="32" version="1.1" viewBox="0 0 32 32" xml:space="preserve" xmlns="http://www.w3.org/2000/svg" xmlns:cc="http://creativecommons.org/ns#" xmlns:dc="http://purl.org/dc/elements/1.1/" xmlns:rdf="http://www.w3.org/1999/02/22-rdf-syntax-ns#"><metadata><rdf:RDF><cc:Work rdf:about=""><dc:format>image/svg+xml</dc:format><dc:type rdf:resource="http://purl.org/dc/dcmitype/StillImage"/></cc:Work></rdf:RDF></metadata><g fill="#555761"><path d="m4.5 4c-1.385 0-2.5 1.115-2.5 2.5v20c0 1.385 1.115 2.5 2.5 2.5h23c1.385 0 2.5-1.115 2.5-2.5v-20c0-1.385-1.115-2.5-2.5-2.5h-23zm0 18h23c0.82235 0 1.5 0.67765 1.5 1.5v3c0 0.82235-0.67765 1.5-1.5 1.5h-23c-0.82235 0-1.5-0.67765-1.5-1.5v-3c0-0.82235 0.67765-1.5 1.5-1.5z" opacity=".25" stop-color="#000000" style="-inkscape-stroke:none;font-variation-settings:normal;paint-order:normal"/><path d="m4.5 3c-1.9304 0-3.5 1.5696-3.5 3.5v20c0 1.9304 1.5696 3.5 3.5 3.5h23c1.9304 0 3.5-1.5696 3.5-3.5v-20c0-1.9304-1.5696-3.5-3.5-3.5h-23zm0 1h23c1.3936 0 2.5 1.1064 2.5 2.5v20c0 1.3936-1.1064 2.5-2.5 2.5h-23c-1.3936 0-2.5-1.1064-2.5-2.5v-20c0-1.3936 1.1064-2.5 2.5-2.5zm0 1a0.5 0.5 0 0 0-0.5 0.5 0.5 0.5 0 0 0 0.5 0.5 0.5 0.5 0 0 0 0.5-0.5 0.5 0.5 0 0 0-0.5-0.5zm19 0a0.5 0.5 0 0 0-0.5 0.5 0.5 0.5 0 0 0 0.5 0.5 0.5 0.5 0 0 0 0.5-0.5 0.5 0.5 0 0 0-0.5-0.5zm2 0a0.5 0.5 0 0 0-0.5 0.5 0.5 0.5 0 0 0 0.5 0.5 0.5 0.5 0 0 0 0.5-0.5 0.5 0.5 0 0 0-0.5-0.5zm2 0a0.5 0.5 0 0 0-0.5 0.5 0.5 0.5 0 0 0 0.5 0.5 0.5 0.5 0 0 0 0.5-0.5 0.5 0.5 0 0 0-0.5-0.5z" stop-color="#000000"/><path d="m4.5 22c-0.82235 0-1.5 0.67765-1.5 1.5v3c0 0.82235 0.67765 1.5 1.5 1.5h23c0.82235 0 1.5-0.67765 1.5-1.5v-3c0-0.82235-0.67765-1.5-1.5-1.5zm0 1h23c0.28565 0 0.5 0.21435 0.5 0.5v3c0 0.28565-0.21435 0.5-0.5 0.5h-23c-0.28565 0-0.5-0.21435-0.5-0.5v-3c0-0.28565 0.21435-0.5 0.5-0.5z" opacity=".75" stop-color="#000000" style="-inkscape-stroke:none;font-variation-settings:normal"/></g></svg>
