<?xml version="1.0" encoding="UTF-8"?>
<svg width="32" height="32" version="1.1" viewBox="0 0 32 32" xml:space="preserve" xmlns="http://www.w3.org/2000/svg" xmlns:cc="http://creativecommons.org/ns#" xmlns:dc="http://purl.org/dc/elements/1.1/" xmlns:rdf="http://www.w3.org/1999/02/22-rdf-syntax-ns#"><metadata><rdf:RDF><cc:Work rdf:about=""><dc:format>image/svg+xml</dc:format><dc:type rdf:resource="http://purl.org/dc/dcmitype/StillImage"/></cc:Work></rdf:RDF></metadata><path d="m4.5 3c-1.9304 0-3.5 1.5696-3.5 3.5v0.5h1v-0.5c0-1.3936 1.1064-2.5 2.5-2.5h2.5v-1zm8.5 0v1h6v-1zm12 0v1h2.5c1.3936 0 2.5 1.1064 2.5 2.5v0.5h1v-0.5c0-1.9304-1.5696-3.5-3.5-3.5zm-24 10v6h1v-6zm0 12v1.5c0 1.9304 1.5696 3.5 3.5 3.5h2.5v-1h-2.5c-1.3936 0-2.5-1.1064-2.5-2.5v-1.5zm29 0v1.5c0 1.3936-1.1064 2.5-2.5 2.5h-2.5v1h2.5c1.9304 0 3.5-1.5696 3.5-3.5v-1.5zm-17 4v1h6v-1z" fill="#555761" stop-color="#000000" stroke-dashoffset=".7"/><path d="m30.907 8.7793h0.0022s-0.15334-0.62401-0.0022 0zm-8.9021 1.091c-0.45129 1.8234-0.52925 3.3598 0.50071 5.0647l2.6122 3.4901-0.16619 0.30043c-0.02236 0.04137-0.05034 0.07937-0.0831 0.11293l-1.0036 1.0142c-0.09456 0.09481-0.22259 0.14771-0.35583 0.14701h-1.5043c-0.81233 0-1.5428 0.493-1.8537 1.2507h0.0022c-0.31089 0.75975-0.13999 1.627 0.43467 2.2074 1.1426 1.1556 3.1001 0.53762 3.3879-1.0696 6e-3 -0.03951 0.01805-0.32474 0.03409-0.36222v-0.5071c5.49e-4 -0.15962 0.07555-0.30965 0.20242-0.40483l1.7877-1.3551 1.7877 1.3551c0.12685 0.09519 0.20186 0.24521 0.20242 0.40483v0.5071c0.01504 0.03647 0.02495 0.32272 0.03196 0.36222 0.28662 1.6094 2.2473 2.2281 3.3899 1.0696 0.57565-0.58045 0.74556-1.4477 0.43467-2.2074h0.0022c-0.31061-0.7582-1.0435-1.2522-1.8559-1.2507h-1.5043c-0.1325 1.2e-4 -0.25966-0.05273-0.3537-0.14701l-1.0014-1.0142c-0.03352-0.03342-0.0622-0.07144-0.08522-0.11293l-0.1598-0.29191 2.6378-3.4986c1.028-1.6796 0.94912-3.2615 0.50285-5.0647l-4.0292 6.9504-3.9951-6.9504zm3.9758 8.331h0.02137c0.33298 0.0143 0.31058 0.50498-0.01069 0.50498-0.32123 0-0.34364-0.49068-0.01069-0.50498zm-3.9754 2.8104c0.54858 0 1.0036 0.46111 1.0036 1.0142 1e-6 0.5531-0.45498 1.0121-1.0036 1.0121-0.54758 1e-6 -1.0014-0.45898-1.0014-1.0121s0.45386-1.0142 1.0014-1.0142zm7.9881 0c0.54758 0 1.0036 0.46111 1.0036 1.0142 0 0.5531-0.45598 1.0121-1.0036 1.0121-0.54758 1e-6 -1.0014-0.45898-1.0014-1.0121s0.45386-1.0142 1.0014-1.0142z" fill="#555761" stop-color="#000000" stroke-dashoffset=".7" style="-inkscape-stroke:none;font-variation-settings:normal"/></svg>
