<?xml version="1.0" encoding="UTF-8"?>
<svg width="32" height="32" version="1.1" viewBox="0 0 32 32" xml:space="preserve" xmlns="http://www.w3.org/2000/svg" xmlns:cc="http://creativecommons.org/ns#" xmlns:dc="http://purl.org/dc/elements/1.1/" xmlns:rdf="http://www.w3.org/1999/02/22-rdf-syntax-ns#"><metadata><rdf:RDF><cc:Work rdf:about=""><dc:format>image/svg+xml</dc:format><dc:type rdf:resource="http://purl.org/dc/dcmitype/StillImage"/></cc:Work></rdf:RDF></metadata><path d="m2 28c0 0.554 0.446 1 1 1h7v-25h-7c-0.554 0-1 0.446-1 1z" fill="#555761" opacity=".25" stop-color="#000000" style="-inkscape-stroke:none;font-variation-settings:normal;paint-order:normal"/><path d="m11 4v25h18c0.554 0 1-0.446 1-1v-23c0-0.554-0.446-1-1-1z" fill="#555761" opacity=".1" stop-color="#000000" style="-inkscape-stroke:none;font-variation-settings:normal;paint-order:normal"/><path d="m11.5 3.7042v25.765" fill="#0e141f" opacity=".75" stop-color="#000000"/><path d="m10 4v25h1v-25z" fill="#555761" opacity=".4" stop-color="#000000" style="-inkscape-stroke:none;font-variation-settings:normal"/><path d="m4.5 3c-1.9304 0-3.5 1.5696-3.5 3.5v20c0 1.9304 1.5696 3.5 3.5 3.5h23c1.9304 0 3.5-1.5696 3.5-3.5v-20c0-1.9304-1.5696-3.5-3.5-3.5zm0 1h23c1.3936 0 2.5 1.1064 2.5 2.5v20c0 1.3936-1.1064 2.5-2.5 2.5h-23c-1.3936 0-2.5-1.1064-2.5-2.5v-20c0-1.3936 1.1064-2.5 2.5-2.5zm0 2c-0.27614 0-0.5 0.22386-0.5 0.5s0.22386 0.5 0.5 0.5 0.5-0.22386 0.5-0.5-0.22386-0.5-0.5-0.5zm23 0c-0.27614 0-0.5 0.22386-0.5 0.5s0.22386 0.5 0.5 0.5 0.5-0.22386 0.5-0.5-0.22386-0.5-0.5-0.5z" fill="#555761" stop-color="#000000"/></svg>
