<?xml version="1.0" encoding="UTF-8"?>
<svg width="48" height="48" version="1.1" xml:space="preserve" xmlns="http://www.w3.org/2000/svg" xmlns:cc="http://creativecommons.org/ns#" xmlns:dc="http://purl.org/dc/elements/1.1/" xmlns:rdf="http://www.w3.org/1999/02/22-rdf-syntax-ns#" xmlns:xlink="http://www.w3.org/1999/xlink"><defs><linearGradient id="linearGradient3019" x1="71.204" x2="71.204" y1="6.2376" y2="44.341" gradientTransform="matrix(1.0541 0 0 1.0541 -51.611 -2.7279)" gradientUnits="userSpaceOnUse"><stop stop-color="#fff" offset="0"/><stop stop-color="#fff" stop-opacity=".23529" offset=".50776"/><stop stop-color="#fff" stop-opacity=".15686" offset=".83457"/><stop stop-color="#fff" stop-opacity=".39216" offset="1"/></linearGradient><radialGradient id="radialGradient3300-8" cx="99.189" cy="185.3" r="62.769" gradientTransform="matrix(.38235 7.5556e-8 -1.8372e-8 .11152 -5.9254 36.336)" gradientUnits="userSpaceOnUse" xlink:href="#linearGradient3820-7-2"/><linearGradient id="linearGradient3820-7-2"><stop offset="0"/><stop stop-opacity="0" offset="1"/></linearGradient><radialGradient id="radialGradient4192-6" cx="99.189" cy="185.3" r="62.769" gradientTransform="matrix(.2549 5.3967e-8 -1.2248e-8 .079655 6.7164 44.241)" gradientUnits="userSpaceOnUse" xlink:href="#linearGradient3820-7-2"/><linearGradient id="linearGradient3887" x1="10" x2="20" y1="-3" y2="12" gradientTransform="matrix(1.8383 0 0 1.6074 -13.299 16.36)" gradientUnits="userSpaceOnUse"><stop stop-color="#fff" offset="0"/><stop stop-color="#fff" stop-opacity="0" offset="1"/></linearGradient><linearGradient id="linearGradient4158" x1="19.005" x2="19.005" y1="202.81" y2="242.79" gradientTransform="translate(0,-248)" gradientUnits="userSpaceOnUse"><stop stop-color="#261e2b" offset="0"/><stop stop-color="#352f39" offset="1"/></linearGradient></defs><metadata><rdf:RDF><cc:Work rdf:about=""><dc:format>image/svg+xml</dc:format><dc:type rdf:resource="http://purl.org/dc/dcmitype/StillImage"/></cc:Work></rdf:RDF></metadata><g transform="matrix(.70833 0 0 .71428 1.3333 .7846)" stroke-width="1.4059"><path d="m56 57.002a24 6.9986 0 1 1-48 0 24 6.9986 0 1 1 48 0z" fill="url(#radialGradient3300-8)" opacity=".2"/><path d="m48 59.002a16 4.9989 0 1 1-32 0 16 4.9989 0 1 1 32 0z" fill="url(#radialGradient4192-6)" opacity=".4"/></g><path d="m24 3.5c-11.311 0-20.5 9.1888-20.5 20.5s9.1888 20.5 20.5 20.5c11.311 0 20.5-9.1888 20.5-20.5 0-11.311-9.1888-20.5-20.5-20.5z" color="#000000" fill="url(#linearGradient4158)" opacity=".99" stop-color="#000000" stroke="#1a0e1f" stroke-linejoin="round" stroke-miterlimit="0" stroke-opacity=".7" stroke-width="1.019" style="-inkscape-stroke:none;font-variation-settings:normal"/><path d="m43.5 23.999c0 10.77-8.7311 19.501-19.5 19.501-10.77 0-19.5-8.7309-19.5-19.501 0-10.769 8.7306-19.499 19.5-19.499 10.769 0 19.5 8.7299 19.5 19.499z" color="#000000" fill="none" opacity=".3" stroke="url(#linearGradient3019)" stroke-linecap="round" stroke-linejoin="round"/><path d="m16.664 14c-1.4685-0.04301-3.2985-0.0097-4.1426 1.4199-0.73666 1.2882-0.45764 2.8317-0.52539 4.2461h3.998c0.12467-0.4997-0.24201-1.4907 0.20976-1.6633 0.47858-0.14555 1.6005 0.34838 1.4641-0.4086v-3.598l-1.0039 0.0039zm13.67 1v2.9941c0.4997 0.12467 1.4907-0.24201 1.6633 0.20976 0.14519 0.47829-0.34798 1.5988 0.4086 1.4621h3.598c-0.0759-1.6293 0.32132-3.629-1.0396-4.8554-1.2757-1.1033-3.0857-0.73401-4.6303-0.81448zm-10.334 0v3h7v-4h-7zm-7.9999 8v6h4v-7h-4zm20 0v6h4v-7h-4zm-20 9.3379c0 1.5-0.01775 3.2575 1.3789 4.1094 1.2862 0.78025 2.8597 0.48513 4.2871 0.55664v-3.998c-0.4997-0.12467-1.4907 0.24201-1.6633-0.20976-0.14519-0.47829 0.34798-1.5988-0.4086-1.4621h-3.598c0.0013 0.33464 0.33855 1.0039 0.0039 1.0039zm20.002-0.01367c0.27848 0.89792-0.57955 0.65603-1.1738 0.67873-0.85255-0.21811-0.36943 0.89161-0.49415 1.3971v2.6039c1.6293-0.0752 3.6289 0.31789 4.8554-1.0416 1.1014-1.2752 0.73716-3.0843 0.81643-4.6283h-3.9941c-0.0033 0.33008-0.0065 0.66016-0.0098 0.99024zm-12.002 1.6758v3h7v-4h-7z" opacity=".15" style="-inkscape-stroke:none;font-variation-settings:normal"/><path d="m16.668 15c-0.66668 0-1.1804-0.0056-1.6523 0.04687-0.47197 0.05244-0.9863 0.17575-1.3887 0.57812s-0.52568 0.9167-0.57812 1.3887c-0.05244 0.47197-0.04883 0.98567-0.04883 1.6523h2c0-0.66668 0.0043-1.1536 0.03516-1.4316 0.0088-0.07946 0.01736-0.13455 0.02539-0.17188 0.03733-0.0079 0.09486-0.01835 0.17578-0.02734 0.27804-0.03089 0.76496-0.03516 1.4316-0.03516zm4.332 0v2h5v-2zm10.334 0v2c0.66668 0 1.1536 0.0043 1.4316 0.03516 0.07972 0.0089 0.13455 0.01953 0.17188 0.02734 0.0078 0.03732 0.01849 0.09216 0.02734 0.17188 0.03089 0.27804 0.03516 0.76497 0.03516 1.4316h2c0-0.66668 0.0056-1.1804-0.04687-1.6523-0.05244-0.47197-0.17576-0.9863-0.57813-1.3887s-0.9167-0.52568-1.3887-0.57812c-0.47197-0.05244-0.98567-0.04687-1.6523-0.04687zm-18.334 8v5h2v-5zm20 0v5h2v-5zm-20 9.334c0 0.66668-0.0056 1.1784 0.04687 1.6504 0.05244 0.47197 0.17771 0.9863 0.58008 1.3887s0.91475 0.52568 1.3867 0.57812c0.47197 0.05244 0.98567 0.04883 1.6523 0.04883v-2c-0.66668 0-1.1536-0.0043-1.4316-0.03516-0.07947-0.0088-0.13478-0.01736-0.17188-0.02539-0.0081-0.03733-0.01834-0.09486-0.02734-0.17578-0.03089-0.27804-0.03516-0.76301-0.03516-1.4297zm20.002 0c0 0.66668-0.0062 1.1516-0.03711 1.4297-9e-3 0.0809-0.01948 0.13846-0.02734 0.17578-0.03732 8e-3 -0.09241 0.01655-0.17188 0.02539-0.27804 0.03089-0.76497 0.03516-1.4316 0.03516v2c0.66668 0 1.1804 0.0036 1.6523-0.04883 0.47197-0.05244 0.9863-0.17575 1.3887-0.57812s0.52568-0.9167 0.57812-1.3887c0.05244-0.47197 0.04883-0.98372 0.04883-1.6504zm-12.002 1.666v2h5v-2z" opacity=".3" style="-inkscape-stroke:none;font-variation-settings:normal"/><path d="m16.666 14c-0.66668 0-1.1804-0.0056-1.6523 0.04687-0.47197 0.05245-0.98435 0.17575-1.3867 0.57812s-0.52764 0.9167-0.58008 1.3887c-0.05244 0.47197-0.04687 0.98567-0.04687 1.6523h2c0-0.66668 0.0043-1.1536 0.03516-1.4316 0.0088-0.07946 0.01932-0.13455 0.02734-0.17188 0.03733-0.0079 0.09291-0.01835 0.17383-0.02734 0.27799-0.0309 0.76301-0.03516 1.4297-0.03516zm4.334 0v2h5v-2zm10.334 0v2c0.66668 0 1.1516 0.0043 1.4297 0.03516 0.0809 9e-3 0.1365 0.01948 0.17383 0.02734 8e-3 0.03732 0.0185 0.09241 0.02734 0.17188 0.03086 0.27804 0.03516 0.76497 0.03516 1.4316h2c0-0.66668 0.0056-1.1804-0.04687-1.6523-0.05245-0.47197-0.17771-0.9863-0.58008-1.3887s-0.91475-0.52568-1.3867-0.57812c-0.47197-0.05244-0.98567-0.04687-1.6523-0.04687zm-18.334 8v5h2v-5zm20 0v5h2v-5zm-20 9.334c0 0.66668-0.0056 1.1804 0.04687 1.6523 0.05244 0.47197 0.17575 0.98435 0.57812 1.3867s0.9167 0.52764 1.3887 0.58008c0.47197 0.05244 0.98567 0.04687 1.6523 0.04687v-2c-0.66668 0-1.1536-0.0043-1.4316-0.03516-0.07946-0.0088-0.13455-0.01932-0.17188-0.02734-0.0079-0.03733-0.01835-0.09291-0.02734-0.17383-0.0309-0.27799-0.03516-0.76301-0.03516-1.4297zm20 0c0 0.66668-0.0043 1.1516-0.03516 1.4297-9e-3 0.0809-0.01948 0.1365-0.02734 0.17383-0.03732 8e-3 -0.09241 0.0185-0.17188 0.02734-0.27804 0.03085-0.76497 0.03516-1.4316 0.03516v2c0.66668 0 1.1804 0.0056 1.6523-0.04687 0.47197-0.05244 0.9863-0.17771 1.3887-0.58008s0.52568-0.91475 0.57812-1.3867c0.05244-0.47198 0.04687-0.98567 0.04687-1.6523zm-12 1.666v2h5v-2z" fill="#fafafa"/><path d="m16.666 15c-0.66667 0-1.1517 0.004257-1.4297 0.035156-0.08092 0.00899-0.1365 0.019444-0.17383 0.027344-0.00802 0.03733-0.018544 0.092415-0.027344 0.17188-0.03086 0.278-0.035156 0.76496-0.035156 1.4316h-1.9941c-0.007798 0.29806-0.005859 0.62491-0.005859 1h2c0-0.66668 0.004296-1.1536 0.035156-1.4316 0.0088-0.07946 0.019324-0.13454 0.027344-0.17188 0.03733-0.0079 0.092908-0.018354 0.17383-0.027344 0.27799-0.0309 0.763-0.035156 1.4297-0.035156v-1zm4.334 0v1h5v-1h-5zm10.334 0v1c0.66668 0 1.1516 0.004296 1.4297 0.035156 0.0809 9e-3 0.1365 0.019484 0.17383 0.027344 8e-3 0.03732 0.018504 0.092405 0.027344 0.17188 0.03086 0.27804 0.035156 0.76501 0.035156 1.4316h2c0-0.3751 0.001935-0.70195-0.005859-1h-1.9941c0-0.66663-0.004296-1.1536-0.035156-1.4316-0.00884-0.07947-0.019344-0.13456-0.027344-0.17188-0.03733-0.00786-0.092928-0.018344-0.17383-0.027344-0.2781-0.03086-0.76301-0.035156-1.4297-0.035156zm-18.334 11v1h2v-1h-2zm20 0v1h2v-1h-2zm-20 5.334c0 0.66668-0.005595 1.1804 0.046875 1.6523 0.05244 0.47197 0.17576 0.98437 0.57812 1.3867s0.91667 0.52764 1.3887 0.58008c0.47197 0.05244 0.98571 0.046875 1.6523 0.046875v-1c-0.66663 0-1.1804 0.005565-1.6523-0.046875-0.472-0.05244-0.9863-0.17773-1.3887-0.58008s-0.52568-0.91475-0.57812-1.3867c-0.022949-0.20639-0.034957-0.42065-0.041016-0.65234h-0.005859zm21.994 0c-0.006062 0.23167-0.018082 0.44593-0.041016 0.65234-0.05244 0.47195-0.17572 0.98435-0.57812 1.3867s-0.9167 0.52764-1.3887 0.58008c-0.4719 0.05247-0.98566 0.046875-1.6523 0.046875v1c0.66668 0 1.1804 0.005595 1.6523-0.046875 0.47197-0.05244 0.98627-0.17771 1.3887-0.58008s0.52568-0.91477 0.57812-1.3867c0.05244-0.47198 0.046875-0.98571 0.046875-1.6523h-0.005859zm-13.994 2.666v1h5v-1h-5z" opacity=".15" style="-inkscape-stroke:none;font-variation-settings:normal"/><path d="m23.795 3.502c-11.217 0.10994-20.295 9.2551-20.295 20.498 0 1.3783 0.13641 2.7249 0.39648 4.0273l39.285-11.271c-2.9079-7.6818-10.303-13.169-18.977-13.254h-0.41016z" fill="url(#linearGradient3887)" opacity=".15"/><path d="m24 3.5c-11.311 0-20.5 9.1888-20.5 20.5s9.1888 20.5 20.5 20.5c11.311 0 20.5-9.1888 20.5-20.5 0-11.311-9.1888-20.5-20.5-20.5z" color="#000000" fill="none" opacity=".99" stop-color="#000000" stroke="#1a0e1f" stroke-linejoin="round" stroke-miterlimit="0" stroke-opacity=".7" stroke-width="1.019" style="-inkscape-stroke:none;font-variation-settings:normal"/></svg>
