<?xml version="1.0" encoding="UTF-8"?>
<svg width="48" height="48" version="1.1" xmlns="http://www.w3.org/2000/svg" xmlns:cc="http://creativecommons.org/ns#" xmlns:dc="http://purl.org/dc/elements/1.1/" xmlns:rdf="http://www.w3.org/1999/02/22-rdf-syntax-ns#" xmlns:xlink="http://www.w3.org/1999/xlink">
 <defs>
  <linearGradient id="linearGradient3024" x1="24" x2="24" y1="6.0315" y2="41.934" gradientTransform="translate(4e-6 1)" gradientUnits="userSpaceOnUse">
   <stop stop-color="#fff" offset="0"/>
   <stop stop-color="#fff" stop-opacity=".23529" offset=".030309"/>
   <stop stop-color="#fff" stop-opacity=".15686" offset=".97834"/>
   <stop stop-color="#fff" stop-opacity=".39216" offset="1"/>
  </linearGradient>
  <radialGradient id="radialGradient3038" cx="4.993" cy="43.5" r="2.5" gradientTransform="matrix(2.0038 0 0 1.4 27.988 -17.4)" gradientUnits="userSpaceOnUse">
   <stop stop-color="#181818" offset="0"/>
   <stop stop-color="#181818" stop-opacity="0" offset="1"/>
  </radialGradient>
  <radialGradient id="radialGradient3040" cx="4.993" cy="43.5" r="2.5" gradientTransform="matrix(2.0038 0 0 1.4 -20.012 -104.4)" gradientUnits="userSpaceOnUse">
   <stop stop-color="#181818" offset="0"/>
   <stop stop-color="#181818" stop-opacity="0" offset="1"/>
  </radialGradient>
  <linearGradient id="linearGradient3042" x1="25.058" x2="25.058" y1="47.028" y2="39.999" gradientUnits="userSpaceOnUse">
   <stop stop-color="#181818" stop-opacity="0" offset="0"/>
   <stop stop-color="#181818" offset=".5"/>
   <stop stop-color="#181818" stop-opacity="0" offset="1"/>
  </linearGradient>
  <linearGradient id="linearGradient5060">
   <stop offset="0"/>
   <stop stop-opacity="0" offset="1"/>
  </linearGradient>
  <linearGradient id="linearGradient4685">
   <stop stop-color="#fff" offset="0"/>
   <stop stop-color="#fff" stop-opacity="0" offset="1"/>
  </linearGradient>
  <linearGradient id="linearGradient3887" x1="10" x2="20" y1="-3" y2="12" gradientTransform="matrix(1.6519 0 0 1.4444 -10.596 17.556)" gradientUnits="userSpaceOnUse" xlink:href="#linearGradient4685"/>
  <linearGradient id="linearGradient4158" x1="19.005" x2="19.005" y1="202.81" y2="242.79" gradientTransform="translate(0 -248)" gradientUnits="userSpaceOnUse">
   <stop stop-color="#261e2b" offset="0"/>
   <stop stop-color="#352f39" offset="1"/>
  </linearGradient>
  <radialGradient id="radialGradient3300-8-3" cx="99.189" cy="185.3" r="62.769" gradientTransform="matrix(.38235 7.5556e-8 -1.8372e-8 .11152 -5.9254 36.336)" gradientUnits="userSpaceOnUse" xlink:href="#linearGradient5060"/>
  <radialGradient id="radialGradient4192-6-5" cx="99.189" cy="185.3" r="62.769" gradientTransform="matrix(.2549 5.3967e-8 -1.2248e-8 .079655 6.7164 44.241)" gradientUnits="userSpaceOnUse" xlink:href="#linearGradient5060"/>
  <linearGradient id="linearGradient3932-9" x1="7.0767" x2="38.962" y1="23" y2="23" gradientTransform="matrix(0 .75 -.75 0 53.25 18.75)" gradientUnits="userSpaceOnUse">
   <stop stop-color="#fafafa" offset="0"/>
   <stop stop-color="#abacae" offset="1"/>
  </linearGradient>
  <linearGradient id="linearGradient3101" x1="71.204" x2="71.204" y1="6.2376" y2="44.341" gradientTransform="matrix(.51351 0 0 .51351 -24.836 -1.0213)" gradientUnits="userSpaceOnUse">
   <stop stop-color="#fff" offset="0"/>
   <stop stop-color="#fff" stop-opacity=".23529" offset=".50776"/>
   <stop stop-color="#fff" stop-opacity=".15686" offset=".83457"/>
   <stop stop-color="#fff" stop-opacity=".39216" offset="1"/>
  </linearGradient>
  <linearGradient id="linearGradient3993-0-6-0-8-5" x1="71.204" x2="71.204" y1="6.2376" y2="44.341" gradientTransform="matrix(.2973 0 0 -.2973 14.674 43.539)" gradientUnits="userSpaceOnUse">
   <stop stop-color="#fff" offset="0"/>
   <stop stop-color="#fff" stop-opacity=".23529" offset=".50776"/>
   <stop stop-color="#fff" stop-opacity=".15686" offset=".83457"/>
   <stop stop-color="#fff" stop-opacity=".39216" offset="1"/>
  </linearGradient>
  <linearGradient id="linearGradient1006" x1="24" x2="24" y1="16.501" y2="31.576" gradientTransform="matrix(.5999 0 0 .5999 21.602 21.603)" gradientUnits="userSpaceOnUse">
   <stop stop-color="#ed5353" offset="0"/>
   <stop stop-color="#c6262e" offset="1"/>
  </linearGradient>
  <linearGradient id="linearGradient3039" x1="7.0776" x2="7.0776" y1="3.0816" y2="45.369" gradientTransform="matrix(.22111 0 0 .22111 30.693 30.693)" gradientUnits="userSpaceOnUse">
   <stop stop-color="#7a0000" offset="0"/>
   <stop stop-color="#c6262e" offset="1"/>
  </linearGradient>
  <linearGradient id="linearGradient3032" x1="71.204" x2="71.204" y1="6.2376" y2="44.341" gradientTransform="matrix(.18918 0 0 .18918 22.429 31.203)" gradientUnits="userSpaceOnUse" xlink:href="#linearGradient3101"/>
  <linearGradient id="linearGradient3259" x1="68.313" x2="68.313" y1="52.925" y2="65.922" gradientTransform="matrix(.17506 0 0 .17506 24.286 23.735)" gradientUnits="userSpaceOnUse" xlink:href="#linearGradient4685"/>
  <linearGradient id="linearGradient1" x1="71.204" x2="71.204" y1="6.2376" y2="44.341" gradientTransform="matrix(.51351 0 0 .51351 -.83613 22.979)" gradientUnits="userSpaceOnUse" xlink:href="#linearGradient3101"/>
 </defs>
 <metadata>
  <rdf:RDF>
   <cc:Work rdf:about="">
    <dc:format>image/svg+xml</dc:format>
    <dc:type rdf:resource="http://purl.org/dc/dcmitype/StillImage"/>
   </cc:Work>
  </rdf:RDF>
 </metadata>
 <g transform="matrix(1.1579 0 0 .64286 -3.7895 16.036)" opacity=".6">
  <rect x="38" y="40" width="5" height="7" fill="url(#radialGradient3038)"/>
  <rect transform="scale(-1)" x="-10" y="-47" width="5" height="7" fill="url(#radialGradient3040)"/>
  <rect x="10" y="40" width="28" height="7" fill="url(#linearGradient3042)"/>
 </g>
 <rect transform="scale(1,-1)" x="4.5" y="-44.5" width="39" height="39" rx="4" ry="4" color="#000000" color-rendering="auto" fill="url(#linearGradient4158)" image-rendering="auto" shape-rendering="auto" solid-color="#000000" stop-color="#000000" stroke="#1a0e1f" stroke-opacity=".7" style="-inkscape-stroke:none;font-variation-settings:normal;isolation:auto;mix-blend-mode:normal"/>
 <rect x="5.5" y="6.5" width="37" height="37" rx="3" ry="3" fill="none" opacity=".3" stroke="url(#linearGradient3024)" stroke-linecap="round" stroke-linejoin="round"/>
 <g transform="translate(-3.4984e-8 5.0003)" opacity=".1">
  <path d="m17 10.012a0.98778 0.98778 0 0 0-0.98828 0.98828v2a0.98778 0.98778 0 0 0 0.98828 0.98828h5a0.98778 0.98778 0 0 0 0.98828-0.98828v-2a0.98778 0.98778 0 0 0-0.98828-0.98828zm9 0a0.98778 0.98778 0 0 0-0.98828 0.98828v2a0.98778 0.98778 0 0 0 0.98828 0.98828h5a0.98778 0.98778 0 0 0 0.98828-0.98828v-2a0.98778 0.98778 0 0 0-0.98828-0.98828zm-17 8a0.98778 0.98778 0 0 0-0.98828 0.98828v5a0.98778 0.98778 0 0 0 0.98828 0.98828h2a0.98778 0.98778 0 0 0 0.98828-0.98828v-5a0.98778 0.98778 0 0 0-0.98828-0.98828zm28 0a0.98778 0.98778 0 0 0-0.98828 0.98828v5a0.98778 0.98778 0 0 0 0.98828 0.98828h2a0.98778 0.98778 0 0 0 0.98828-0.98828v-5a0.98778 0.98778 0 0 0-0.98828-0.98828zm-20 11a0.98778 0.98778 0 0 0-0.98828 0.98828v2a0.98778 0.98778 0 0 0 0.98828 0.98828h5a0.98778 0.98778 0 0 0 0.98828-0.98828v-2a0.98778 0.98778 0 0 0-0.98828-0.98828zm9 0a0.98778 0.98778 0 0 0-0.98828 0.98828v2a0.98778 0.98778 0 0 0 0.98828 0.98828h5a0.98778 0.98778 0 0 0 0.98828-0.98828v-2a0.98778 0.98778 0 0 0-0.98828-0.98828z" fill-rule="evenodd"/>
  <g fill="none" stroke="#000" stroke-width="2">
   <path d="m38 14.666c0-2.6667 0-2.6667-2.6667-2.6667"/>
   <path d="m12.667 12c-2.6667 0-2.6667 0-2.6667 2.6667"/>
   <path d="m10 28.333c0 2.6667 0 2.6667 2.6667 2.6667"/>
   <path d="m35.334 31c2.6667 0 2.6667 0 2.6667-2.6667"/>
  </g>
 </g>
 <g transform="translate(0 5.0003)" opacity=".3">
  <path d="m38 14.666c0-2.6667 0-2.6667-2.6667-2.6667" fill="none" stroke="#000" stroke-width="2"/>
  <path d="m12.667 12c-2.6667 0-2.6667 0-2.6667 2.6667" fill="none" stroke="#000" stroke-width="2"/>
  <path d="m17 11v2h5v-2zm9 0v2h5v-2zm-17 8v5h2v-5zm28 0v5h2v-5zm-20 11v2h5v-2zm9 0v2h5v-2z" fill-rule="evenodd"/>
  <path d="m10 28.333c0 2.6667 0 2.6667 2.6667 2.6667" fill="none" stroke="#000" stroke-width="2"/>
  <path d="m35.334 31c2.6667 0 2.6667 0 2.6667-2.6667" fill="none" stroke="#000" stroke-width="2"/>
 </g>
 <g transform="translate(0 -.00019948)">
  <path d="m17 15v2h5v-2zm9 0v2h5v-2zm-17 8v5h2v-5zm28 0v5h2v-5zm-20 11v2h5v-2zm9 0v2h5v-2z" fill="#fff" fill-rule="evenodd"/>
  <path d="m35.334 35c2.6667 0 2.6667 0 2.6667-2.6667m-25.334-16.334c-2.6667 0-2.6667 0-2.6667 2.6667m28 0c0-2.6667 0-2.6667-2.6667-2.6667m-25.334 16.334c0 2.6667 0 2.6667 2.6667 2.6667" fill="none" stroke="#fff" stroke-width="2"/>
 </g>
 <g transform="translate(10.48 38.27)">
  <path d="m6.5201-22.27v2h5v-2zm9 0v2h5v-2zm-17 8v5h2v-5zm28 0v5h2v-5zm-20 11v2h5v-2zm9 0v2h5v-2z" fill-rule="evenodd" opacity=".1" stop-color="#000000" style="-inkscape-stroke:none;font-variation-settings:normal"/>
  <path d="m24.854-2.2698c2.6667 0 2.6667 0 2.6667-2.6667m-25.334-16.334c-2.6667 0-2.6667 0-2.6667 2.6667m28 0c0-2.6667 0-2.6667-2.6667-2.6667m-25.334 16.334c0 2.6667 0 2.6667 2.6667 2.6667" fill="none" opacity=".1" stop-color="#000000" stroke="#000" stroke-width="2" style="-inkscape-stroke:none;font-variation-settings:normal"/>
 </g>
 <path d="m6.5586 6c-1.2293 0.68096-2.0586 1.9897-2.0586 3.5v18.643l39-11.189v-7.4531c0-1.5103-0.82927-2.819-2.0586-3.5h-34.883z" fill="url(#linearGradient3887)" opacity=".15"/>
 <g transform="matrix(.375 0 0 .35714 24 25.142)" stroke-width="2.7325">
  <path d="m56 57.002a24 6.9986 0 1 1-48 0 24 6.9986 0 1 1 48 0z" fill="url(#radialGradient3300-8-3)" opacity=".2"/>
  <path d="m48 59.002a16 4.9989 0 1 1-32 0 16 4.9989 0 1 1 32 0z" fill="url(#radialGradient4192-6-5)" opacity=".4"/>
 </g>
 <path d="m36 25.5c-5.7992 0-10.5 4.7014-10.5 10.5 0 5.799 4.7012 10.5 10.5 10.5 5.7989 0 10.5-4.7011 10.5-10.5 0-5.7985-4.7007-10.5-10.5-10.5z" fill="url(#linearGradient3932-9)"/>
 <g fill="none" stroke-linecap="round" stroke-linejoin="round">
  <path d="m36 25.501c-5.7927 0-10.498 4.7058-10.498 10.498 0 5.7927 4.7058 10.498 10.498 10.498 5.7927 0 10.498-4.7058 10.498-10.498 0-5.7927-4.7058-10.498-10.498-10.498z" opacity=".6" stroke="#555761" stroke-width="1.0036"/>
  <path d="m45.5 36c0 5.247-4.254 9.5-9.5 9.5-5.2466 0-9.5-4.254-9.5-9.5 0-5.2466 4.2534-9.4997 9.5001-9.4997 5.2463 0 9.4999 4.253 9.4999 9.4997z" color="#000000" stroke="url(#linearGradient1)"/>
  <path d="m41.5 36c0-3.0377-2.4626-5.5002-5.4999-5.5002-3.0376 0-5.5001 2.4626-5.5001 5.5002 0 3.0375 2.4625 5.4998 5.5001 5.4998 3.0373 0 5.4999-2.4623 5.4999-5.4998z" color="#000000" opacity=".5" stroke="url(#linearGradient3993-0-6-0-8-5)"/>
 </g>
 <path d="m36 31.502c-2.4819 0-4.4982 2.0163-4.4982 4.4982s2.0163 4.4982 4.4982 4.4982 4.4982-2.0163 4.4982-4.4982-2.0163-4.4982-4.4982-4.4982z" fill="url(#linearGradient1006)" stroke="url(#linearGradient3039)" stroke-linecap="round" stroke-linejoin="round" stroke-width="1.0036"/>
 <path d="m39.5 36c0 1.9331-1.5672 3.4999-3.4999 3.4999-1.9329 0-3.4999-1.5672-3.4999-3.4999 0-1.9329 1.567-3.4998 3.4999-3.4998 1.9328 0 3.4999 1.5669 3.4999 3.4998z" color="#000000" fill="none" opacity=".5" stroke="url(#linearGradient3032)" stroke-linecap="round" stroke-linejoin="round"/>
 <path d="m38 35a2 2 0 1 1-4 0 2 2 0 1 1 4 0z" color="#000000" fill="url(#linearGradient3259)" opacity=".4"/>
</svg>
