<?xml version="1.0" encoding="UTF-8"?>
<svg width="48" height="48" version="1.1" xml:space="preserve" xmlns="http://www.w3.org/2000/svg" xmlns:cc="http://creativecommons.org/ns#" xmlns:dc="http://purl.org/dc/elements/1.1/" xmlns:rdf="http://www.w3.org/1999/02/22-rdf-syntax-ns#" xmlns:xlink="http://www.w3.org/1999/xlink"><defs><linearGradient id="linearGradient4011"><stop stop-color="#fff" offset="0"/><stop stop-color="#fff" stop-opacity=".23529" offset=".50776"/><stop stop-color="#fff" stop-opacity=".15686" offset=".83457"/><stop stop-color="#fff" stop-opacity=".39216" offset="1"/></linearGradient><linearGradient id="linearGradient3019" x1="71.204" x2="71.204" y1="6.2376" y2="44.341" gradientTransform="matrix(1.0541 0 0 1.0541 1.389 -2.7279)" gradientUnits="userSpaceOnUse" xlink:href="#linearGradient4011"/><radialGradient id="radialGradient3300-8" cx="99.189" cy="185.3" r="62.769" gradientTransform="matrix(.38235 7.5556e-8 -1.8372e-8 .11152 -5.9254 36.336)" gradientUnits="userSpaceOnUse" xlink:href="#linearGradient3820-7-2"/><linearGradient id="linearGradient3820-7-2"><stop offset="0"/><stop stop-opacity="0" offset="1"/></linearGradient><radialGradient id="radialGradient4192-6" cx="99.189" cy="185.3" r="62.769" gradientTransform="matrix(.2549 5.3967e-8 -1.2248e-8 .079655 6.7164 44.241)" gradientUnits="userSpaceOnUse" xlink:href="#linearGradient3820-7-2"/><linearGradient id="linearGradient854"><stop stop-color="#ffa154" offset="0"/><stop stop-color="#f37329" offset="1"/></linearGradient><linearGradient id="linearGradient1" x1="82.658" x2="82.658" y1="3.4496" y2="44.573" gradientTransform="translate(-5.5345)" gradientUnits="userSpaceOnUse" xlink:href="#linearGradient854"/><linearGradient id="linearGradient6" x1="82.658" x2="82.658" y1="3.4496" y2="44.573" gradientTransform="translate(-58.535)" gradientUnits="userSpaceOnUse" xlink:href="#linearGradient854"/><linearGradient id="linearGradient7" x1="71.204" x2="71.204" y1="6.2376" y2="44.341" gradientTransform="matrix(1.0541 0 0 1.0541 -51.611 -2.7279)" gradientUnits="userSpaceOnUse" xlink:href="#linearGradient4011"/></defs><metadata><rdf:RDF><cc:Work rdf:about=""><dc:format>image/svg+xml</dc:format><dc:type rdf:resource="http://purl.org/dc/dcmitype/StillImage"/></cc:Work></rdf:RDF></metadata><g transform="matrix(.70833 0 0 .71428 54.333 .7846)" stroke-width="1.4059"><path d="m56 57.002a24 6.9986 0 1 1-48 0 24 6.9986 0 1 1 48 0z" fill="url(#radialGradient3300-8)" opacity=".2"/><path d="m48 59.002a16 4.9989 0 1 1-32 0 16 4.9989 0 1 1 32 0z" fill="url(#radialGradient4192-6)" opacity=".4"/></g><path d="m77 3.5c-11.311 0-20.5 9.1888-20.5 20.5s9.1888 20.5 20.5 20.5 20.5-9.1888 20.5-20.5c0-11.311-9.1888-20.5-20.5-20.5z" color="#000000" fill="url(#linearGradient1)" opacity=".99" stroke="#a62100" stroke-opacity=".5"/><path d="m96.5 23.999c0 10.77-8.7311 19.501-19.5 19.501-10.77 0-19.5-8.7309-19.5-19.501 0-10.769 8.7306-19.499 19.5-19.499 10.769 0 19.5 8.7299 19.5 19.499z" color="#000000" fill="none" opacity=".35" stroke="url(#linearGradient3019)" stroke-linecap="round" stroke-linejoin="round"/><path d="m76.893 10.006c-1.124 0.09431-1.6306 1.306-2.4016 1.971-0.76012 0.92413-1.7279 1.6993-2.3621 2.7145-0.51418 1.094 0.46151 2.4778 1.6707 2.3086 0.53683 0.0633 1.4954-0.29516 1.2004 0.6-0.0222 3.3016 0.0443 6.7357-0.0332 9.9547-1.2539-0.58628-2.7948-0.7662-3.7636-1.8272-0.39569-0.43971 0.47066-0.60104 0.66597-0.94823 1.4057-1.4066 1.5062-3.8862 0.15624-5.3647-1.1447-1.422-3.3149-1.8107-4.9101-0.93609-1.7362 0.90028-2.6075 3.1809-1.812 4.988 0.30003 0.83963 0.94031 1.5573 1.7143 1.9886 0.0373 2.0342 1.4138 3.8439 3.2498 4.643 1.4325 0.78541 3.1991 0.95365 4.4416 2.0602 0.5676 0.48316-0.30961 0.69894-0.57813 1.0625-1.4057 1.4066-1.5062 3.8862-0.15624 5.3647 1.1447 1.422 3.3149 1.8107 4.9102 0.93609 1.7362-0.90028 2.6075-3.1809 1.812-4.988-0.29728-0.83376-0.93157-1.5461-1.6967-1.9788-0.12373-0.77492 0.18632-1.5909 0.95082-1.8984 2.0925-1.0302 4.714-1.409 6.1332-3.463 0.64874-0.92875 0.91687-2.0717 0.91602-3.1934 1.2443 0.03896 2.1888-1.2072 2-2.4-0.0432-1.3629 0.0864-2.7442-0.0644-4.0961-0.24595-1.1263-1.4695-1.6669-2.5356-1.5039-1.3263 0.06185-2.6838-0.1245-3.9916 0.094-1.1234 0.29656-1.5649 1.5494-1.4084 2.606 0.0615 1.293-0.12403 2.6171 0.094 3.8916 0.23132 0.8218 1.0528 1.4196 1.904 1.4084 2e-3 1.1731-1.3445 1.5391-2.2323 1.9035-0.58794 0.22311-1.185 0.42288-1.7657 0.66486v-9.5684c0.94601-0.02008 2.1748 0.2298 2.752-0.75195 0.55627-0.85777 0.10845-1.9149-0.62304-2.5001-1.1214-1.1536-2.1264-2.44-3.3184-3.5135-0.26832-0.17372-0.60063-0.25562-0.91797-0.22852z" fill="#a62100" opacity=".15" stop-color="#000000"/><path d="m76.992 11c-0.15952 0-0.30461 0.06814-0.41211 0.17773l-3.3789 3.6895c-0.12377 0.11857-0.20117 0.29084-0.20117 0.48437 0 0.35908 0.26706 0.64844 0.59961 0.64844h2.4004v13.195c-2.3696-1.5288-6-1.5007-6-4.1953v-0.17188a3 3 0 0 0 2-2.8281 3 3 0 0 0-3-3 3 3 0 0 0-3 3 3 3 0 0 0 2 2.8281v0.17188c0 5.998 7.9947 4.0014 8 7.9961v0.17578a3 3 0 0 0-2 2.8281 3 3 0 0 0 3 3 3 3 0 0 0 3-3 3 3 0 0 0-2-2.8281v-1.1758c5e-3 -3.9947 8-1.9981 8-7.9961v-1h1c0.554 0 1-0.446 1-1v-4c0-0.554-0.446-1-1-1h-4c-0.554 0-1 0.446-1 1v4c0 0.554 0.446 1 1 1h1v1c0 2.6946-3.6304 2.6665-6 4.1953v-12.195h2.4004c0.33255 0 0.59961-0.28935 0.59961-0.64844 0-0.19353-0.0774-0.36581-0.20117-0.48437l-3.3945-3.6895c-0.10751-0.1096-0.2526-0.17773-0.41211-0.17773z" fill="#a62100" opacity=".3" stop-color="#000000"/><g fill="#fafafa"><path d="m81 14.352c0 0.35908-0.26772 0.64816-0.60026 0.64816h-6.7995c-0.33254 0-0.60026-0.28908-0.60026-0.64816 0-0.19353 0.0779-0.36629 0.20165-0.48486l3.379-3.6897c0.1075-0.10959 0.25199-0.17723 0.41151-0.17723 0.15951 0 0.304 0.06763 0.4115 0.17723l3.3947 3.6897c0.12377 0.11857 0.20165 0.29133 0.20165 0.48486z" stop-color="#000000"/><path d="m76 14.036v19.404l2 0.03959v-19.479z" stop-color="#000000"/><g><circle cx="77" cy="35" r="3" style="-inkscape-stroke:none"/><rect x="82" y="16" width="6" height="6" rx="1" ry="1" style="-inkscape-stroke:none"/><path d="m78 31.996c-4e-3 -5.9951-8-3.997-8-7.9961v-1.4863c2.4e-4 -0.28748-0.31388-0.51367-0.55859-0.51367h-0.88282c-0.24471 0-0.55859 0.26526-0.55859 0.55273v1.4473c0 5.998 7.9947 4.0014 8 7.9961z" stop-color="#000000" style="-inkscape-stroke:none;font-variation-settings:normal"/><path d="m76 30.996c4e-3 -5.9951 8-3.997 8-7.9961v-1.4863c-2.4e-4 -0.28748 0.31388-0.51367 0.55859-0.51367h0.88282c0.24471 0 0.55859 0.26526 0.55859 0.55273v1.4473c0 5.998-7.9947 4.0014-8 7.9961z" stop-color="#000000" style="-inkscape-stroke:none;font-variation-settings:normal"/><circle cx="69" cy="21" r="3" style="-inkscape-stroke:none"/></g></g><path d="m73.217 13.852-0.0156 0.01563c-0.12377 0.11857-0.20117 0.29084-0.20117 0.48437 0 0.35908 0.26706 0.64844 0.59961 0.64844h2.4004v-1h-2.4004c-0.1462 0-0.27906-0.05524-0.38281-0.14844zm7.5664 0c-0.10375 0.093172-0.23663 0.14844-0.38281 0.14844h-2.4004v1h2.4004c0.33255 0 0.59961-0.28935 0.59961-0.64844 0-0.19353-0.0774-0.36581-0.20117-0.48437zm1.2168 6.1484v1c0 0.554 0.446 1 1 1h1v-1h-1c-0.554 0-1-0.446-1-1zm6 0c0 0.554-0.446 1-1 1h-1v1h1c0.554 0 1-0.446 1-1zm-2 2c0 5.998-7.9947 4.0014-8 7.9961v1c5e-3 -3.9947 8-1.9981 8-7.9961zm-19.953-1.498a3 3 0 0 0-0.04687 0.49805 3 3 0 0 0 2 2.8281v0.17188c0 5.5638 6.8788 4.2479 7.8789 7.2168a3 3 0 0 1 0.12109-0.04492v-0.17578c-5e-3 -3.9947-8-1.9981-8-7.9961v-0.17188a3 3 0 0 1-1.9531-2.3262zm5.9062 0a3 3 0 0 1-1.9531 2.3262v0.17188c0 0.29075 0.0427 0.55048 0.12109 0.7832a3 3 0 0 0 1.8789-2.7832 3 3 0 0 0-0.0469-0.49805zm2.0938 13.996a3 3 0 0 0-0.04687 0.50195 3 3 0 0 0 3 3 3 3 0 0 0 3-3 3 3 0 0 0-0.0469-0.50195 3 3 0 0 1-2.9531 2.502 3 3 0 0 1-2.9531-2.502z" fill="#a62100" opacity=".15" stop-color="#000000" style="-inkscape-stroke:none;font-variation-settings:normal"/><g transform="matrix(.70833 0 0 .71428 1.3333 .7846)" stroke-width="1.4059"><path d="m56 57.002a24 6.9986 0 1 1-48 0 24 6.9986 0 1 1 48 0z" fill="url(#radialGradient3300-8)" opacity=".2"/><path d="m48 59.002a16 4.9989 0 1 1-32 0 16 4.9989 0 1 1 32 0z" fill="url(#radialGradient4192-6)" opacity=".4"/></g><path d="m24 3.5c-11.311 0-20.5 9.1888-20.5 20.5s9.1888 20.5 20.5 20.5c11.311 0 20.5-9.1888 20.5-20.5 0-11.311-9.1888-20.5-20.5-20.5z" color="#000000" fill="url(#linearGradient6)" opacity=".99" stroke="#a62100" stroke-opacity=".5"/><path d="m43.5 23.999c0 10.77-8.7311 19.501-19.5 19.501-10.77 0-19.5-8.7309-19.5-19.501 0-10.769 8.7306-19.499 19.5-19.499 10.769 0 19.5 8.7299 19.5 19.499z" color="#000000" fill="none" opacity=".35" stroke="url(#linearGradient7)" stroke-linecap="round" stroke-linejoin="round"/><path d="m23.893 10.006c-1.124 0.09431-1.6306 1.306-2.4016 1.971-0.76012 0.92413-1.7279 1.6993-2.3621 2.7145-0.51418 1.094 0.46152 2.4778 1.6707 2.3086 0.53683 0.0633 1.4954-0.29516 1.2004 0.6-0.02218 3.3016 0.04434 6.7357-0.0332 9.9547-1.2539-0.58628-2.7948-0.7662-3.7636-1.8272-0.22772-0.35858-0.36661-0.94339 0.12906-1.1205 1.2-1.0658 1.5028-2.9306 0.72142-4.3303-0.8662-1.5422-2.9522-2.2418-4.5435-1.4265-1.7452 0.7496-2.5457 3.0837-1.6019 4.7398 0.19414 0.56214 0.78224 0.94734 1.0917 1.3577-0.08986 1.9958 0.99234 3.9739 2.7825 4.8924 1.5062 0.92688 3.3693 1.1255 4.7957 2.1834 0.66584 0.45093 0.08093 0.77802-0.34227 1.1073-1.5093 1.3705-1.6412 3.9463-0.26123 5.4547 1.1447 1.422 3.3149 1.8107 4.9101 0.93609 1.7362-0.90028 2.6075-3.1809 1.812-4.988-0.29728-0.83376-0.93157-1.5461-1.6967-1.9788 0.05515-0.96001-0.30102-2.2691 0.77734-2.7988 2.0494-1.1028 4.66-1.3982 6.1557-3.3651 0.85386-1.0224 1.0589-2.4284 1.1021-3.6818 1.016-0.54906 1.0315-1.8031 0.96484-2.809 0.099835-0.98159-0.054156-2.1823-1.0528-2.6565-0.972-0.461-2.103-0.16808-3.1424-0.22992-1.2181 0.071523-1.9926 1.341-1.8048 2.4864 0.01539 1.0604-0.22317 2.3936 0.79688 3.0957 0.4303 0.25678 0.1526 0.98728-0.13477 1.3008-1.0348 0.89374-2.4424 1.1224-3.6621 1.6719v-8.5684c0.94601-0.02008 2.1748 0.2298 2.752-0.75195 0.55627-0.85777 0.10844-1.9149-0.62305-2.5001-1.1214-1.1536-2.1264-2.44-3.3184-3.5135-0.26832-0.17372-0.60063-0.25562-0.91797-0.22852z" fill="#a62100" opacity=".15" stop-color="#000000"/><path d="m23.992 11c-0.15952 0-0.30461 0.06814-0.41211 0.17773l-3.3789 3.6895c-0.12377 0.11857-0.20117 0.29084-0.20117 0.48437 0 0.35908 0.26706 0.64844 0.59961 0.64844h2.4004v13.195c-2.3696-1.5288-6-1.5007-6-4.1953v-0.70898a2.5 2.5 0 0 0 1.5-2.291 2.5 2.5 0 0 0-2.5-2.5 2.5 2.5 0 0 0-2.5 2.5 2.5 2.5 0 0 0 1.5 2.291v0.70898c0 5.998 7.9947 4.0014 8 7.9961v0.17578a3 3 0 0 0-2 2.8281 3 3 0 0 0 3 3 3 3 0 0 0 3-3 3 3 0 0 0-2-2.8281v-2.1758c0.00531-3.9947 8-1.9981 8-7.9961v-1c0.554 0 1-0.446 1-1v-2c0-0.554-0.446-1-1-1h-2c-0.554 0-1 0.446-1 1v2c0 0.554 0.446 1 1 1v1c0 2.6946-3.6304 2.6665-6 4.1953v-11.195h2.4004c0.33255 0 0.59961-0.28935 0.59961-0.64844 0-0.19353-0.0774-0.36581-0.20117-0.48437l-3.3945-3.6895c-0.1075-0.1096-0.2526-0.17773-0.41211-0.17773z" fill="#a62100" opacity=".3" stop-color="#000000"/><path d="m23.992 10c-0.15952 0-0.30461 0.06814-0.41211 0.17773l-3.3789 3.6895c-0.12377 0.11856-0.20117 0.29084-0.20117 0.48437 0 0.35909 0.26706 0.64844 0.59961 0.64844h2.4004v13.195c-2.3696-1.5288-6-1.5007-6-4.1953v-0.70898a2.5 2.5 0 0 0 1.5-2.291 2.5 2.5 0 0 0-2.5-2.5 2.5 2.5 0 0 0-2.5 2.5 2.5 2.5 0 0 0 1.5 2.291v0.70898c0 5.998 7.9947 4.0014 8 7.9961v0.17578a3 3 0 0 0-2 2.8281 3 3 0 0 0 3 3 3 3 0 0 0 3-3 3 3 0 0 0-2-2.8281v-2.1758c0.00531-3.9947 8-1.9981 8-7.9961v-1c0.554 0 1-0.446 1-1v-2c0-0.554-0.446-1-1-1h-2c-0.554 0-1 0.446-1 1v2c0 0.554 0.446 1 1 1v1c0 2.6946-3.6304 2.6665-6 4.1953v-11.195h2.4004c0.33255 0 0.59961-0.28935 0.59961-0.64844 0-0.19353-0.0774-0.36581-0.20117-0.48437l-3.3945-3.6895c-0.1075-0.1096-0.2526-0.17773-0.41211-0.17773z" fill="#fafafa" stop-color="#000000"/><path d="m20.217 13.852-0.01563 0.01563c-0.12376 0.11856-0.20117 0.29084-0.20117 0.48437 0 0.35908 0.26706 0.64844 0.59961 0.64844h2.4004v-1h-2.4004c-0.1462 0-0.27905-0.05524-0.38281-0.14844zm7.5664 0c-0.10375 0.093172-0.23663 0.14844-0.38281 0.14844h-2.4004v1h2.4004c0.33255 0 0.59961-0.28935 0.59961-0.64844 0-0.19353-0.0774-0.36581-0.20117-0.48437zm2.2168 5.1484v1c0 0.554 0.446 1 1 1v-1c-0.554 0-1-0.446-1-1zm4 0c0 0.554-0.446 1-1 1v1c0.554 0 1-0.446 1-1zm-1 2c0 5.998-7.9947 4.0014-8 7.9961v1c0.00531-3.9947 8-1.9981 8-7.9961zm-19.443-0.49805a2.5 2.5 0 0 0-0.056641 0.49805 2.5 2.5 0 0 0 1.5 2.291v0.70898c0 5.5638 6.8788 4.2479 7.8789 7.2168a3 3 0 0 1 0.12109-0.044922v-0.17578c-0.00531-3.9947-8-1.9981-8-7.9961v-0.70898a2.5 2.5 0 0 1-1.4434-1.7891zm4.8867 0a2.5 2.5 0 0 1-1.4434 1.7891v0.70898c0 0.09847 0.0042 0.19375 0.01367 0.28516a2.5 2.5 0 0 0 1.4863-2.2852 2.5 2.5 0 0 0-0.056641-0.49805zm2.6035 13.996a3 3 0 0 0-0.046875 0.50195 3 3 0 0 0 3 3 3 3 0 0 0 3-3 3 3 0 0 0-0.046875-0.50195 3 3 0 0 1-2.9531 2.502 3 3 0 0 1-2.9531-2.502z" fill="#a62100" opacity=".15" stop-color="#000000" style="-inkscape-stroke:none;font-variation-settings:normal"/></svg>
